<?xml version="1.0" encoding="UTF-8" standalone="no"?><!DOCTYPE svg PUBLIC "-//W3C//DTD SVG 1.1//EN" "http://www.w3.org/Graphics/SVG/1.1/DTD/svg11.dtd"><svg width="100%" height="100%" viewBox="0 0 1137 811" version="1.1" xmlns="http://www.w3.org/2000/svg" xmlns:xlink="http://www.w3.org/1999/xlink" xml:space="preserve" xmlns:serif="http://www.serif.com/" style="fill-rule:evenodd;clip-rule:evenodd;stroke-linejoin:round;stroke-miterlimit:2;"><g><text x="288.878px" y="528.191px" style="font-family:'Consolas-Bold', 'Consolas', monospace;font-weight:700;font-size:827.647px;fill:#282c34;">D</text><path d="M422.213,270.721l1.699,-1.699l226.602,226.602l276.603,-276.603l-127.618,-127.618l336.712,-0.785l-0.122,337.376l-128.383,-128.384l-356.956,356.956l-0.236,-0.236l-0.237,0.236l-228.064,-228.064l-341.624,341.624l-80.589,-80.59l420.514,-420.514l1.699,1.699Zm696.936,116.353l0.1,-279.461l-278.911,0.651l98.768,98.768c6.622,6.621 6.622,17.357 0,23.978l-276.603,276.603c-6.621,6.622 -17.357,6.622 -23.979,0l-216.311,-216.311l-398.234,398.234l56.61,56.611l329.635,-329.634c6.621,-6.622 17.357,-6.622 23.978,-0l216.312,216.311l345.203,-345.203c6.621,-6.622 17.357,-6.622 23.978,-0l99.454,99.453Z" style="fill:#58ad6e;"/><text x="420.304px" y="801.177px" style="font-family:'Consolas-Bold', 'Consolas', monospace;font-weight:700;font-size:827.647px;fill:#6ba83b;">S</text></g></svg>